<?xml version="1.0" standalone="no"?>
<!DOCTYPE svg PUBLIC "-//W3C//DTD SVG 20010904//EN"
 "http://www.w3.org/TR/2001/REC-SVG-20010904/DTD/svg10.dtd">
<svg version="1.0" xmlns="http://www.w3.org/2000/svg"
 width="225.000000pt" height="225.000000pt" viewBox="0 0 225.000000 225.000000"
 preserveAspectRatio="xMidYMid meet">
<metadata>
Created by potrace 1.15, written by Peter Selinger 2001-2017
</metadata>
<g transform="translate(0.000000,225.000000) scale(0.100000,-0.100000)"
fill="#0d4f61" stroke="none">
<path d="M850 2073 c-195 -13 -371 -48 -453 -89 -101 -52 -169 -151 -204 -301
-16 -70 -18 -129 -18 -563 0 -433 2 -492 18 -555 62 -242 168 -325 477 -372
135 -21 737 -25 875 -5 275 38 391 97 459 232 68 137 71 166 71 710 0 434 -2
492 -18 555 -23 91 -59 168 -103 222 -70 85 -235 139 -501 162 -108 10 -484
12 -603 4z m465 -507 c78 -71 82 -77 83 -120 2 -40 -2 -49 -35 -80 l-38 -36
-3 45 -3 44 -77 3 -77 3 -3 73 -3 72 -194 0 c-180 0 -195 -1 -204 -19 -7 -12
-11 -168 -11 -419 0 -324 3 -404 14 -415 17 -17 485 -24 529 -8 l27 11 0 148
0 148 34 33 c19 18 36 28 40 23 8 -13 1 -416 -8 -431 -10 -16 -677 -16 -694 1
-17 17 -17 969 0 986 9 9 84 12 276 12 l265 0 82 -74z m335 -64 c28 -27 50
-57 50 -68 0 -12 -88 -107 -237 -255 l-238 -236 -94 -32 c-51 -18 -95 -30 -97
-28 -3 2 10 45 28 95 l33 91 235 239 c129 132 243 240 253 241 9 0 40 -21 67
-47z m-376 -147 c18 -18 11 -45 -13 -45 -335 -2 -451 -1 -460 4 -6 4 -11 13
-11 20 0 33 23 36 246 36 186 0 225 -2 238 -15z m-34 -109 c0 -3 -11 -16 -24
-30 l-23 -26 -197 0 c-166 0 -198 2 -202 15 -4 8 -1 22 6 30 10 12 49 15 226
15 118 0 214 -2 214 -4z m-120 -122 c0 -4 -11 -17 -26 -30 -24 -23 -32 -24
-160 -24 -140 0 -156 5 -140 45 4 12 32 15 166 15 88 0 160 -3 160 -6z m-70
-121 c0 -5 -3 -18 -6 -30 -6 -22 -10 -23 -125 -23 -124 0 -140 6 -125 45 4 12
29 15 131 15 69 0 125 -3 125 -7z m-45 -133 c-8 -25 1 -25 66 0 40 16 70 20
128 18 74 -3 76 -4 76 -28 l0 -25 -237 -3 c-229 -2 -237 -2 -243 18 -3 11 -3
24 0 30 3 6 51 10 111 10 101 0 105 -1 99 -20z"/>
<path d="M1356 1301 c-178 -178 -214 -219 -198 -223 15 -4 66 41 232 207 187
187 226 235 192 235 -4 0 -105 -98 -226 -219z"/>
<path d="M1431 1233 c-161 -162 -211 -217 -202 -226 9 -9 64 41 226 203 118
118 214 219 212 224 -2 6 -7 11 -13 12 -5 1 -105 -95 -223 -213z"/>
</g>
</svg>
