<?xml version="1.0" standalone="no"?>
<!DOCTYPE svg PUBLIC "-//W3C//DTD SVG 20010904//EN"
 "http://www.w3.org/TR/2001/REC-SVG-20010904/DTD/svg10.dtd">
<svg version="1.0" xmlns="http://www.w3.org/2000/svg"
 width="180.000000pt" height="280.000000pt" viewBox="0 0 180.000000 280.000000"
 preserveAspectRatio="xMidYMid meet">
<metadata>
Created by potrace 1.15, written by Peter Selinger 2001-2017
</metadata>
<g transform="translate(0.000000,280.000000) scale(0.100000,-0.100000)"
fill="red" stroke="none">
<path d="M1340 2631 c0 -5 -4 -21 -10 -35 l-9 -26 -51 20 c-59 23 -98 25 -125
6 -11 -7 -34 -17 -52 -20 -31 -7 -31 -7 -30 -69 2 -61 1 -62 -26 -65 -18 -2
-35 -15 -50 -37 -23 -33 -23 -34 -49 -17 -14 9 -35 28 -46 42 l-20 25 -56 -30
c-35 -19 -56 -37 -56 -47 0 -29 -71 -24 -100 7 -29 30 -66 33 -75 5 -3 -11
-12 -20 -19 -20 -7 0 -21 -9 -30 -19 -15 -16 -22 -18 -42 -9 -20 10 -27 8 -39
-8 -14 -18 -15 -18 -35 6 -11 14 -29 44 -41 68 -16 33 -25 41 -38 36 -9 -4
-70 -8 -136 -8 -124 -1 -128 -2 -187 -49 -26 -21 -22 -41 22 -116 22 -37 40
-72 40 -79 0 -6 -18 -17 -40 -23 -50 -15 -56 -44 -7 -34 17 4 37 12 44 17 8 6
13 -1 18 -23 6 -24 3 -34 -9 -41 -9 -5 -16 -13 -16 -18 0 -14 176 -67 281 -85
52 -8 105 -18 117 -21 l24 -5 -25 -19 c-14 -11 -36 -20 -49 -20 -45 0 -254 49
-337 78 l-84 30 7 -471 c4 -328 11 -509 22 -592 8 -66 19 -246 24 -400 11
-358 20 -442 54 -500 28 -46 52 -65 83 -64 15 0 14 2 -5 11 -65 32 -80 118
-92 508 -5 157 -15 359 -24 450 -9 91 -20 298 -26 460 -5 162 -15 353 -21 423
-6 70 -9 130 -6 133 3 3 47 -8 99 -24 92 -29 203 -56 286 -68 47 -7 47 -7 31
-54 -10 -27 -9 -34 4 -41 9 -5 13 -17 10 -29 -3 -12 1 -22 11 -26 8 -3 18 -22
22 -42 4 -21 11 -45 16 -56 9 -17 12 -16 39 10 16 15 29 33 29 40 0 6 7 18 16
25 15 13 16 8 12 -46 -3 -33 -11 -92 -19 -132 l-13 -72 27 -27 c15 -15 30 -24
34 -21 3 4 25 51 49 104 23 54 51 102 61 108 10 5 21 14 24 19 4 4 15 5 26 2
26 -8 78 48 88 93 4 20 17 37 35 46 15 8 30 19 32 25 2 6 55 5 158 -5 204 -20
491 -30 613 -20 92 6 97 8 97 29 0 22 -3 23 -52 19 -29 -2 -69 -7 -88 -10 -33
-6 -34 -6 -10 -13 16 -5 -4 -9 -60 -10 -145 -3 -251 1 -274 9 -11 5 -82 12
-156 15 -186 10 -247 24 -205 49 36 21 56 23 164 10 58 -7 221 -13 361 -14
352 -2 320 -6 320 36 0 19 -3 34 -7 34 -21 -3 -23 3 -9 23 13 18 16 52 16 165
l0 143 -44 28 -43 28 23 28 c15 16 31 26 42 23 16 -4 16 -5 0 -6 -24 -1 -23
-18 2 -31 18 -10 20 -8 20 24 0 26 -5 36 -21 41 -11 4 -22 5 -23 3 -40 -59
-71 -88 -94 -88 -15 0 -41 -9 -59 -19 -40 -25 -46 -13 -27 65 7 32 14 64 14
70 0 6 -27 23 -60 38 -32 15 -62 30 -64 35 -3 4 1 29 9 56 8 27 14 49 13 50
-11 8 -148 13 -148 6z m356 -400 c23 -10 50 -28 61 -40 18 -20 19 -26 8 -59
-7 -20 -17 -37 -22 -37 -4 0 -43 16 -85 35 -82 37 -88 46 -66 95 14 31 45 33
104 6z m-157 -41 c30 -37 57 -100 44 -100 -3 0 -19 11 -35 26 -33 27 -128 78
-128 68 0 -3 18 -31 40 -63 22 -31 40 -60 40 -64 0 -17 -58 -5 -79 17 -12 13
-38 32 -57 42 -18 10 -34 24 -34 31 0 7 14 28 31 48 29 32 35 35 88 35 55 0
59 -2 90 -40z m-484 0 c15 -6 29 -19 32 -30 3 -11 16 -23 30 -26 39 -10 11
-26 -38 -22 -31 2 -44 7 -44 18 0 8 7 14 17 12 25 -4 31 15 9 27 -20 11 -51 5
-62 -12 -4 -5 -20 -2 -37 7 -17 9 -34 16 -37 16 -12 0 47 -49 66 -55 38 -12
18 -25 -39 -25 -65 0 -82 -11 -82 -53 0 -29 -1 -29 -22 -13 -13 9 -31 19 -40
22 -14 5 -12 14 20 62 19 32 43 62 51 69 19 15 140 17 176 3z m-339 -103 c9
-7 24 -20 35 -29 10 -10 25 -18 32 -18 6 -1 27 -14 46 -30 l34 -29 -38 10
c-33 10 -81 8 -195 -4 -39 -5 -216 9 -230 18 -5 3 -7 12 -3 21 4 11 16 13 55
8 48 -7 49 -6 60 24 10 26 18 32 48 34 94 8 143 6 156 -5z m425 -42 c3 -17 13
-47 23 -69 9 -21 16 -41 16 -43 0 -7 -24 1 -109 36 -40 17 -87 31 -105 31 -31
0 -32 1 -28 35 4 30 8 35 36 40 55 9 90 10 126 5 28 -4 35 -10 41 -35z m338
-25 c26 0 44 5 47 14 4 10 14 9 49 -7 34 -16 42 -24 34 -33 -16 -19 -2 -34 31
-34 15 0 30 -6 33 -13 3 -7 24 -19 47 -26 23 -7 40 -14 38 -17 -8 -7 -301 -7
-360 1 -52 7 -58 10 -58 31 0 12 -4 34 -10 48 -13 36 -4 54 26 48 18 -3 24 0
24 13 0 14 3 14 29 -4 18 -13 45 -21 70 -21z m-762 -77 c-37 -14 -67 -29 -67
-34 0 -12 7 -11 64 6 27 8 52 13 54 10 3 -3 -9 -26 -27 -51 -18 -26 -31 -47
-29 -48 21 -13 58 -24 58 -17 0 5 -5 11 -11 13 -19 6 4 40 61 91 39 35 62 48
96 53 51 7 133 -1 148 -16 10 -10 -1 -13 -104 -31 -69 -11 -108 -28 -130 -54
-21 -25 -5 -27 34 -5 53 32 68 20 26 -21 -19 -19 -40 -43 -45 -54 -9 -16 -20
-20 -56 -18 -38 2 -41 1 -21 -9 12 -6 22 -15 22 -20 0 -4 9 -8 21 -8 12 0 17
-4 13 -11 -6 -11 -32 -9 -68 6 -15 7 -17 5 -12 -12 4 -13 -1 -26 -15 -39 -12
-10 -44 -63 -71 -118 -27 -54 -52 -96 -54 -93 -3 3 6 28 21 57 21 41 24 55 14
66 -9 11 -7 14 12 14 19 0 21 2 9 10 -24 15 -40 12 -40 -9 0 -11 -5 -23 -12
-27 -8 -5 -9 0 -4 17 14 50 19 156 7 163 -16 11 -13 29 4 22 27 -10 16 2 -17
18 -39 20 -49 20 -24 1 19 -15 19 -16 -6 -19 -6 0 -13 -11 -14 -23 -2 -13 -13
-32 -25 -44 l-21 -21 7 24 c12 38 11 41 -17 55 -16 8 -28 19 -28 25 0 10 16 8
53 -7 9 -4 17 -3 17 2 0 5 -15 15 -34 21 -38 14 -48 39 -33 85 9 28 23 35 29
15 3 -7 20 -2 50 16 38 22 50 25 65 15 15 -9 25 -7 55 13 27 18 45 23 74 20
l38 -5 -67 -24z"/>
<path d="M1358 1703 c-20 -3 -30 -12 -34 -30 -9 -35 7 -57 42 -61 37 -4 43
-11 70 -74 26 -63 33 -66 167 -67 73 -1 108 3 133 15 19 9 33 19 31 23 -28 51
-36 82 -26 99 17 28 3 71 -27 82 -31 12 -104 13 -123 1 -13 -8 -19 -56 -9 -67
3 -2 20 -6 38 -9 34 -4 50 -18 50 -46 0 -18 -44 -29 -112 -29 -48 0 -73 33
-64 84 10 50 0 64 -55 75 -28 6 -51 10 -52 10 -1 -1 -14 -4 -29 -6z m103 -100
c18 -38 35 -69 35 -71 4 -8 105 -13 152 -7 61 8 64 16 25 86 -25 46 -27 69 -5
55 15 -9 75 -157 67 -164 -8 -9 -219 -14 -239 -6 -9 3 -29 34 -47 67 -45 91
-51 107 -36 107 7 0 29 -30 48 -67z"/>
<path d="M1790 1143 c0 -39 -102 -469 -143 -603 -42 -135 -97 -351 -97 -379 0
-8 5 -9 17 -3 16 9 110 352 194 707 29 122 50 295 35 295 -3 0 -6 -8 -6 -17z"/>
</g>
</svg>
