<?xml version="1.0" standalone="no"?>
<!DOCTYPE svg PUBLIC "-//W3C//DTD SVG 20010904//EN"
 "http://www.w3.org/TR/2001/REC-SVG-20010904/DTD/svg10.dtd">
<svg version="1.0" xmlns="http://www.w3.org/2000/svg"
 width="260.000000pt" height="194.000000pt" viewBox="0 0 260.000000 194.000000"
 preserveAspectRatio="xMidYMid meet">
<metadata>
Created by potrace 1.15, written by Peter Selinger 2001-2017
</metadata>
<g transform="translate(0.000000,194.000000) scale(0.100000,-0.100000)"
fill="#0d4f61" stroke="none">
<path d="M165 1786 c-59 -27 -100 -71 -115 -124 -8 -25 -10 -264 -8 -758 l3
-720 27 -42 c15 -22 49 -54 75 -69 l48 -28 1105 0 c1060 0 1106 1 1140 19 49
26 79 55 103 101 22 40 22 46 25 730 2 500 0 705 -8 744 -10 43 -22 63 -59
100 -28 28 -62 51 -87 59 -31 9 -299 12 -1120 12 l-1079 0 -50 -24z m2235
-101 c62 -32 60 -7 60 -762 0 -664 -1 -689 -20 -720 -12 -21 -32 -36 -57 -43
-27 -8 -350 -10 -1105 -8 l-1068 3 -32 33 -33 32 -3 691 c-2 625 -1 693 14
725 32 67 -41 63 1142 64 940 0 1077 -2 1102 -15z"/>
<path d="M787 1469 c-138 -33 -209 -138 -192 -288 4 -36 7 -70 6 -76 -1 -5 -4
-30 -7 -53 -7 -46 17 -116 41 -126 7 -2 16 -18 20 -34 3 -16 17 -40 31 -52 28
-27 32 -74 9 -101 -9 -9 -56 -34 -106 -54 -145 -61 -218 -142 -219 -242 0 -75
-16 -73 493 -73 l448 0 25 25 c27 27 26 42 -2 122 -23 62 -95 122 -203 167
-49 21 -97 46 -106 55 -23 26 -19 70 10 97 13 12 27 35 31 51 4 15 18 41 33
56 20 22 25 37 24 70 -4 86 -4 104 3 189 6 77 4 92 -15 131 -15 31 -33 49 -59
62 -20 10 -48 24 -62 31 -104 56 -126 61 -203 43z m134 -129 c24 -16 52 -30
61 -30 10 0 22 -9 28 -19 13 -25 13 -115 -1 -164 -7 -28 -7 -47 2 -72 12 -31
11 -37 -8 -57 -11 -13 -24 -34 -28 -48 -4 -14 -21 -39 -37 -56 -27 -29 -30
-39 -31 -105 -3 -106 12 -124 168 -199 106 -51 145 -79 145 -104 0 -3 -162 -6
-360 -6 -198 0 -360 4 -360 8 0 23 37 49 150 105 153 76 165 90 165 191 0 70
-1 75 -37 115 -21 22 -38 49 -38 58 0 9 -10 27 -22 40 -20 21 -21 27 -10 55 9
24 9 47 0 93 -20 113 8 195 75 214 58 17 92 12 138 -19z"/>
<path d="M1480 1240 c-25 -25 -26 -52 -2 -73 17 -15 57 -17 375 -17 l356 0 15
22 c21 30 20 44 -4 68 -19 19 -33 20 -370 20 -337 0 -351 -1 -370 -20z"/>
<path d="M1476 958 c-21 -30 -20 -44 4 -68 19 -19 33 -20 370 -20 337 0 351 1
370 20 24 24 25 38 4 68 l-15 22 -359 0 -359 0 -15 -22z"/>
<path d="M1476 684 c-19 -18 -20 -38 -6 -65 10 -18 25 -19 375 -19 317 0 366
2 379 16 21 21 20 47 -2 67 -17 15 -57 17 -375 17 -310 0 -358 -2 -371 -16z"/>
</g>
</svg>
