<?xml version="1.0" standalone="no"?>
<!DOCTYPE svg PUBLIC "-//W3C//DTD SVG 20010904//EN"
 "http://www.w3.org/TR/2001/REC-SVG-20010904/DTD/svg10.dtd">
<svg version="1.0" xmlns="http://www.w3.org/2000/svg"
 width="225.000000pt" height="225.000000pt" viewBox="0 0 225.000000 225.000000"
 preserveAspectRatio="xMidYMid meet">
<metadata>
Created by potrace 1.15, written by Peter Selinger 2001-2017
</metadata>
<g transform="translate(0.000000,225.000000) scale(0.100000,-0.100000)"
fill="#000000" stroke="none">
<path d="M287 1452 c-15 -17 -17 -70 -17 -564 0 -634 -11 -578 112 -578 l75 0
6 -47 c3 -27 9 -58 12 -70 7 -23 6 -23 -87 -23 -60 0 -98 -4 -106 -12 -15 -15
-15 -61 0 -76 17 -17 1523 -17 1580 0 82 24 158 123 158 205 0 22 3 23 71 23
119 0 109 -32 109 358 l0 337 -61 150 c-79 196 -107 233 -209 283 -50 24 -68
27 -191 30 -133 4 -137 3 -153 -19 -14 -21 -16 -79 -16 -531 l0 -508 -353 0
-353 0 -29 30 -29 30 338 0 c213 0 344 4 357 10 18 10 19 26 19 485 0 417 -2
475 -16 489 -14 14 -83 16 -608 16 -562 0 -594 -1 -609 -18z m1131 -394 l2
-308 -520 0 -520 0 0 310 0 310 518 -2 517 -3 3 -307z m332 154 c0 -111 4
-163 13 -175 7 -9 63 -29 137 -47 69 -17 142 -36 163 -41 l37 -10 0 -259 0
-260 -58 0 c-48 0 -63 4 -78 21 -29 33 -114 69 -162 69 -23 0 -59 -7 -79 -15
-19 -8 -37 -15 -39 -15 -7 0 -4 876 3 883 3 4 19 7 35 7 l28 0 0 -158z m194
94 c30 -30 52 -68 80 -139 21 -54 36 -101 32 -104 -3 -4 -32 1 -63 9 -32 9
-77 21 -100 28 l-43 11 0 118 c0 65 3 120 6 123 12 12 50 -7 88 -46z m-1206
-916 c76 -47 68 -166 -14 -205 -50 -23 -95 -13 -133 31 -90 102 30 245 147
174z m1138 -11 c35 -33 50 -90 34 -129 -35 -86 -140 -102 -203 -32 -43 47 -27
138 31 175 37 24 105 17 138 -14z m-290 -121 c6 -29 14 -61 18 -70 8 -17 -13
-18 -364 -18 l-372 0 7 23 c3 12 9 43 12 70 l6 47 341 0 342 0 10 -52z"/>
</g>
</svg>
